<?xml version="1.0" encoding="UTF-8"?>
<svg width="32px" height="24px" viewBox="0 0 32 24" version="1.1" xmlns="http://www.w3.org/2000/svg" xmlns:xlink="http://www.w3.org/1999/xlink">
    <!-- Generator: Sketch 50.2 (55047) - http://www.bohemiancoding.com/sketch -->
    <title>icon2</title>
    <desc>Created with Sketch.</desc>
    <defs></defs>
    <g id="Page-1" stroke="none" stroke-width="1" fill="none" fill-rule="evenodd">
        <g id="Artboard" transform="translate(-1.000000, 0.000000)" fill="#FFFFFF">
            <g id="icon2">
                <path d="M16.9,9.3 C16.4,9.4 16.1,9.9 16.2,10.4 C17.1,14.5 17.3,18.9 16.8,22.9 C16.7,23.4 17.1,23.9 17.6,23.9 C17.6,23.9 17.7,23.9 17.7,23.9 C18.1,23.9 18.5,23.6 18.6,23.1 C19.2,18.8 19,14.3 18,9.9 C17.8,9.5 17.4,9.2 16.9,9.3 Z M14.8,14.6 C14.3,14.6 14,15.1 14,15.6 C14.2,18 14.2,20.4 13.8,22.8 C13.7,23.3 14.1,23.8 14.5,23.9 C14.5,23.9 14.6,23.9 14.6,23.9 C15,23.9 15.4,23.6 15.5,23.1 C15.8,20.6 15.9,18.1 15.7,15.5 C15.8,14.9 15.3,14.5 14.8,14.6 Z M16.2,6.3 C15.2,6.5 14.4,7.2 13.8,8.1 C13.3,9 13.1,10.1 13.3,11.1 C13.4,11.6 13.5,12.1 13.6,12.6 C13.7,13.1 14.2,13.4 14.6,13.3 C15.1,13.2 15.4,12.7 15.3,12.2 C15.2,11.7 15.1,11.1 15,10.6 C14.9,10 15,9.5 15.3,9 C15.6,8.5 16,8.2 16.6,8 C17.7,7.7 18.8,8.5 19.1,9.6 C20,13.9 20.3,18.2 19.8,22.4 C19.7,22.9 20.1,23.4 20.6,23.4 C20.6,23.4 20.7,23.4 20.7,23.4 C21.1,23.4 21.5,23.1 21.6,22.6 C22.1,18.2 21.8,13.7 20.8,9.2 C20.3,7.1 18.3,5.8 16.2,6.3 Z M13.2,7 C13.5,6.6 13.4,6 13.1,5.7 C12.7,5.4 12.2,5.5 11.9,5.9 C11.7,6.1 11.6,6.3 11.5,6.5 C10.5,8.1 10.2,10 10.7,11.9 C11.5,15.3 11.6,18.8 11.2,22.1 C11.1,22.6 11.5,23.1 12,23.1 C12,23.1 12.1,23.1 12.1,23.1 C12.5,23.1 12.9,22.8 13,22.3 C13.4,18.9 13.3,15.1 12.5,11.5 C12.2,10.1 12.4,8.7 13.1,7.5 C12.9,7.3 13.1,7.1 13.2,7 Z M23.8,15.5 C23.3,15.5 22.9,16 23,16.5 C23.1,18.2 23.1,19.9 22.9,21.6 C22.9,22.1 23.2,22.6 23.7,22.6 C23.7,22.6 23.7,22.6 23.8,22.6 C24.3,22.6 24.6,22.2 24.7,21.7 C24.8,19.9 24.9,18.1 24.8,16.3 C24.7,15.8 24.3,15.5 23.8,15.5 Z M23.6,14.2 C23.6,14.2 23.7,14.2 23.7,14.2 C24.2,14.1 24.5,13.7 24.5,13.2 C24.3,11.7 24.1,10.2 23.7,8.7 C23,5.4 20.2,3.1 17,3.1 C16.5,3.1 16,3.2 15.5,3.3 C15.1,3.4 14.7,3.5 14.3,3.7 C13.9,3.9 13.6,4.5 13.8,4.9 C14,5.4 14.5,5.6 15,5.4 C15.3,5.3 15.6,5.2 15.9,5.1 C16.3,5 16.7,5 17,5 C19.4,5 21.4,6.7 22,9 C22.3,10.4 22.6,11.9 22.7,13.4 C22.7,13.9 23.1,14.2 23.6,14.2 Z M26.5,7.9 C26.1,6.1 25.2,4.4 23.9,3 C23.6,2.6 23,2.6 22.7,3 C22.4,3.4 22.4,4 22.7,4.3 C23.7,5.4 24.5,6.8 24.8,8.3 C25.6,12 26,15.8 25.9,19.6 C25.9,20.1 26.3,20.6 26.8,20.6 C27.3,20.6 27.7,20.1 27.7,19.6 C27.8,15.8 27.4,11.8 26.5,7.9 Z M8.9,15.5 C8.9,15.5 9,15.5 9,15.5 C9.5,15.4 9.8,15 9.7,14.4 C9.6,13.6 9.5,12.8 9.3,12.1 C8.8,9.9 9.2,7.7 10.3,5.8 C11.4,3.9 13.2,2.6 15.2,2.1 C17,1.7 18.9,1.9 20.5,2.8 C20.9,3 21.5,2.8 21.7,2.4 C21.9,1.9 21.7,1.4 21.3,1.2 C19.3,0.1 17,-0.2 14.8,0.4 C12.3,1 10.1,2.6 8.8,5 C7.4,7.3 7,10.1 7.6,12.7 C7.8,13.3 7.9,14 8,14.7 C8.1,15.2 8.5,15.5 8.9,15.5 Z M9.2,16.9 C8.7,16.9 8.3,17.2 8.3,17.7 C8.3,18.8 8.3,19.7 8.2,20.7 C8.2,21.2 8.5,21.7 9,21.7 C9,21.7 9.1,21.7 9.1,21.7 C9.5,21.7 9.9,21.4 10,20.9 C10.1,19.8 10.1,18.8 10.1,17.6 C10,17.2 9.6,16.9 9.2,16.9 Z" id="Shape" fill-rule="nonzero"></path>
                <rect id="Rectangle" transform="translate(16.651700, 11.773674) rotate(-29.000000) translate(-16.651700, -11.773674) " x="-1.02578729" y="10.5236739" width="35.3549745" height="2.5" rx="1.25"></rect>
            </g>
        </g>
    </g>
</svg>