<?xml version="1.0" encoding="utf-8"?>
<!-- Generator: Adobe Illustrator 22.0.0, SVG Export Plug-In . SVG Version: 6.00 Build 0)  -->
<svg version="1.1" id="Layer_1" xmlns="http://www.w3.org/2000/svg" xmlns:xlink="http://www.w3.org/1999/xlink" x="0px" y="0px"
	 viewBox="0 0 43 68" style="enable-background:new 0 0 43 68;" xml:space="preserve">
<style type="text/css">
	.st0{fill:#FFFFFF;}
	.st1{fill:#1A1A1A;}
	.st2{fill:none;}
</style>
<title>wireguard</title>
<desc>Created with Sketch.</desc>
<g id="desktop">
	<g id="muraqaba-2.4" transform="translate(-202.000000, -39.000000)">
		<g id="Group-2" transform="translate(187.000000, 39.000000)">
			<g id="wireguard-">
				<g id="wireguard-copy2">
					<path id="Shape" class="st0" d="M27.2,23c7.6-4.3,17.4-1.7,21.1,4.8c0.7,1.2,0.8,3.1,0.3,4.4c-1.5,4.4-5.1,6.9-10,8
						c1.5-1.1,2.6-2.4,3-4.2c0.4-1.7,0-3.5-1.1-4.9c-1.8-2.3-5-3.2-7.8-2.2c-3,1.1-4.7,3.6-4.4,6.7c0.3,2.9,2.7,4.8,7.2,5.5
						c-0.7,0.3-1.2,0.6-1.7,0.8c-2.1,1-3.8,2.5-5.2,4.2c-0.5,0.6-0.8,0.6-1.5,0.2C18,41.2,17.4,28.5,27.2,23z M19.3,53.9
						c-1.5,0.3-2.9,0.8-4.3,1.3c0.7-4.5,6.4-8.6,11.3-8.1c-1.4,1.8-2.2,3.9-2.3,6.1C22.3,53.4,20.8,53.6,19.3,53.9z M50.5,8.5
						c1.4,0,2.9,0,4.3,0.1c0.4,0,0.7,0.1,1.1,0.1c-0.3,0.4-0.7,0.9-1.1,1.3c-0.5,0.4-1.1,0.9-1.8,0.2c-0.2-0.2-0.6-0.1-0.9-0.1
						c-1.4,0-2.9-0.1-4.3,0c-1.2,0-2.5,0.1-3.7,0.4c-0.2,0-0.6,0.7-0.5,1c0.3,0.6,0.6,1.3,1.1,1.7c2,1.4,4.1,2.7,6,4.1
						c1.9,1.4,3.7,2.9,4.8,5c1.4,2.7,1.5,5.5,0.8,8.4c-1,4.8-3.6,8.7-7.9,11.6c-1.7,1.1-3.8,1.8-5.8,2.6c-1.7,0.7-3.5,1.4-5.2,2.1
						c-3.1,1.3-4.9,4.4-4.4,7.6c0.5,3,3.3,5.4,6.5,6c3.9,0.6,7.9-1.7,8.9-5.4c1.1-4.1-1.4-7.7-5.9-8.8c-0.2,0-0.4-0.1-0.8-0.2
						c1.2-0.5,2.3-0.8,3.2-1.3c1.7-0.8,3.3-1.8,5-2.7c0.5-0.3,0.7-0.3,1.1,0c3.1,2.5,5,5.5,5.5,9.3c0.9,6.2-2.3,12-8.4,14.9
						c-9.4,4.5-20.9-0.6-23-10.2c-1.8-8.2,4.5-15.6,12.1-17c3.3-0.6,6.2-1.9,8.6-4.2c1.5-1.5,2.2-2.8,2.5-3.3
						c0.5-1.1,0.7-2.2,0.7-3.4c-0.1-1-0.3-2-0.8-2.9c-0.8-1.7-3.8-4.3-4.6-4.8l-7.1-5.1c-0.3-0.2-0.5-0.2-1.1-0.1
						c-0.7,0-2.6,0.1-3.4,0c0.7-0.4,2.4-1.1,3.2-1.6c-2.3-1.4-4.9-0.9-7.4-1.3c0.6-1,3.3-2.4,4.9-2.6c-0.1-0.8-0.2-1.6-0.4-2.4
						c-0.1-0.3-0.5-0.6-0.8-0.8c-0.8-0.4-1.7-0.8-2.7-1.3c0.9-0.5,1.9-0.8,2.9-0.8c1,0,1.9,0,2.9,0.3c1.7,0.4,3.1,0.1,4.5-0.9
						c-1.1-0.4-2.1-0.8-3.2-1.2C35,2,34,1.5,33,1c2.7,0.4,5.3,1.3,8.1,0.9c0-0.1,0.1-0.2,0.1-0.4c-2.1-0.4-4.1-0.9-6.4-1.4
						c3.8-0.3,7.4-0.4,10.8,1.1c0.9,0.4,1.9,0.8,2.9,1.3c0.4,0.2,0.7,0.7,1.1,1.1c0.3,0.3,0.5,0.7,0.9,0.8c1.4,0.7,2.8,0.7,4.4,0.7
						c0-0.2,0-0.3,0-0.5C56.3,5.1,58,6.8,58,7.9c-2.5,0-4.9,0-7.4,0c-0.3,0-0.5,0.2-0.8,0.3C50,8.3,50.2,8.5,50.5,8.5z"/>
					<path id="Shape_1_" class="st1" d="M49.2,5.5C49,5.6,48.9,6,49.1,6.4c0,0,0.1,0.1,0.1,0.1c0.2,0.5,0.6,0.6,0.9,0.4
						c0.3-0.2,0.6-0.5,0.9-0.7c-0.3-0.4-0.5-0.6-0.7-0.9C49.9,4.8,49.5,5.1,49.2,5.5z"/>
					<rect id="_x3C_Slice_x3E_" x="15" class="st2" width="43" height="68"/>
				</g>
			</g>
		</g>
	</g>
</g>
</svg>
